      <svg
        id="wave"
        style="transform:rotate(0deg); transition: 0.3s"
        viewBox="0 0 1440 380"
        version="1.1"
        xmlns="http://www.w3.org/2000/svg"
      >
        <defs>
          <linearGradient id="sw-gradient-0" x1="0" x2="0" y1="1" y2="0">
            <stop stop-color="#18d6f8" offset="0%"></stop>
            <stop stop-color="#18d6f8" offset="100%"></stop>
          </linearGradient>
        </defs>
        <path
          style="transform:translate(0, 0px); opacity:1"
          fill="#18d6f8"
          d="M0,342L60,285C120,228,240,114,360,107.7C480,101,600,203,720,253.3C840,304,960,304,1080,297.7C1200,291,1320,279,1440,247C1560,215,1680,165,1800,120.3C1920,76,2040,38,2160,69.7C2280,101,2400,203,2520,209C2640,215,2760,127,2880,133C3000,139,3120,241,3240,278.7C3360,317,3480,291,3600,259.7C3720,228,3840,190,3960,183.7C4080,177,4200,203,4320,190C4440,177,4560,127,4680,95C4800,63,4920,51,5040,63.3C5160,76,5280,114,5400,158.3C5520,203,5640,253,5760,240.7C5880,228,6000,152,6120,101.3C6240,51,6360,25,6480,38C6600,51,6720,101,6840,126.7C6960,152,7080,152,7200,158.3C7320,165,7440,177,7560,202.7C7680,228,7800,266,7920,272.3C8040,279,8160,253,8280,202.7C8400,152,8520,76,8580,38L8640,0L8640,380L8580,380C8520,380,8400,380,8280,380C8160,380,8040,380,7920,380C7800,380,7680,380,7560,380C7440,380,7320,380,7200,380C7080,380,6960,380,6840,380C6720,380,6600,380,6480,380C6360,380,6240,380,6120,380C6000,380,5880,380,5760,380C5640,380,5520,380,5400,380C5280,380,5160,380,5040,380C4920,380,4800,380,4680,380C4560,380,4440,380,4320,380C4200,380,4080,380,3960,380C3840,380,3720,380,3600,380C3480,380,3360,380,3240,380C3120,380,3000,380,2880,380C2760,380,2640,380,2520,380C2400,380,2280,380,2160,380C2040,380,1920,380,1800,380C1680,380,1560,380,1440,380C1320,380,1200,380,1080,380C960,380,840,380,720,380C600,380,480,380,360,380C240,380,120,380,60,380L0,380Z"
        ></path>
        <defs>
          <linearGradient id="sw-gradient-1" x1="0" x2="0" y1="1" y2="0">
            <stop stop-color="#f3f6fe" offset="0%"></stop>
            <stop stop-color="#f3f6fe" offset="100%"></stop>
          </linearGradient>
        </defs>
        <path
          style="transform:translate(0, 50px); opacity:1"
          fill="url(#sw-gradient-1)"
          d="M0,228L60,209C120,190,240,152,360,158.3C480,165,600,215,720,247C840,279,960,291,1080,272.3C1200,253,1320,203,1440,171C1560,139,1680,127,1800,158.3C1920,190,2040,266,2160,285C2280,304,2400,266,2520,266C2640,266,2760,304,2880,266C3000,228,3120,114,3240,63.3C3360,13,3480,25,3600,44.3C3720,63,3840,89,3960,95C4080,101,4200,89,4320,126.7C4440,165,4560,253,4680,272.3C4800,291,4920,241,5040,183.7C5160,127,5280,63,5400,82.3C5520,101,5640,203,5760,202.7C5880,203,6000,101,6120,95C6240,89,6360,177,6480,234.3C6600,291,6720,317,6840,316.7C6960,317,7080,291,7200,259.7C7320,228,7440,190,7560,145.7C7680,101,7800,51,7920,31.7C8040,13,8160,25,8280,25.3C8400,25,8520,13,8580,6.3L8640,0L8640,380L8580,380C8520,380,8400,380,8280,380C8160,380,8040,380,7920,380C7800,380,7680,380,7560,380C7440,380,7320,380,7200,380C7080,380,6960,380,6840,380C6720,380,6600,380,6480,380C6360,380,6240,380,6120,380C6000,380,5880,380,5760,380C5640,380,5520,380,5400,380C5280,380,5160,380,5040,380C4920,380,4800,380,4680,380C4560,380,4440,380,4320,380C4200,380,4080,380,3960,380C3840,380,3720,380,3600,380C3480,380,3360,380,3240,380C3120,380,3000,380,2880,380C2760,380,2640,380,2520,380C2400,380,2280,380,2160,380C2040,380,1920,380,1800,380C1680,380,1560,380,1440,380C1320,380,1200,380,1080,380C960,380,840,380,720,380C600,380,480,380,360,380C240,380,120,380,60,380L0,380Z"
        ></path>
      </svg>